<?xml version="1.0" encoding="UTF-8"?>
<!-- Generator: Adobe Illustrator 16.2.0, SVG Export Plug-In . SVG Version: 6.00 Build 0)  -->
<!DOCTYPE svg PUBLIC "-//W3C//DTD SVG 1.1//EN" "http://www.w3.org/Graphics/SVG/1.1/DTD/svg11.dtd">
<svg version="1.1" id="Layer_1" xmlns="http://www.w3.org/2000/svg" xmlns:xlink="http://www.w3.org/1999/xlink" x="0px" y="0px" width="29.471px" height="28.569px" viewBox="0 0 29.471 28.569" enable-background="new 0 0 29.471 28.569" xml:space="preserve">
<path fill="#1F2020" d="M21.45,18.045c-0.463-0.248-0.896-0.395-1.363-0.475l-7.414-1.249l5.805-4.801  c1.304-1.095,1.896-3.233,0.214-4.303c-1.479-0.94-3.088,0.182-3.76,1.552l-3.343,6.717L8.665,8.56  c-0.554-1.423-2.196-2.599-3.72-1.744c-1.715,0.961-1.176,3.123-0.007,4.255l5.39,5.185L2.76,16.882  c-1.594,0.119-3.21,1.481-2.645,3.209c0.575,1.755,2.542,1.917,3.964,1.155l6.712-3.635l-1.955,7.461  c-0.399,1.498,0.242,3.342,1.987,3.487c1.885,0.156,2.864-1.54,2.57-3.26l-1.163-7.515l6.296,3.969  c1.145,0.742,2.821,0.949,3.751-0.244C23.171,20.361,22.696,18.713,21.45,18.045C20.987,17.797,22.64,18.683,21.45,18.045z"/>
</svg>